<svg xmlns="http://www.w3.org/2000/svg" width="16" height="16" viewBox="0 0 16 16">
    <g fill="none" fill-rule="evenodd">
        <g stroke="#417BE2">
            <g>
                <g>
                    <g transform="translate(-137 -340) translate(32 260) translate(26 15) translate(79 65)">
                        <circle cx="8" cy="8" r="7.5" fill="#FFF"/>
                        <g fill="#417BE2" stroke-width=".5">
                            <path d="M.118.69C-.039.531-.039.275.118.117c.158-.157.414-.157.571 0l5.93 5.93c.157.157.157.413 0 .57-.158.158-.414.158-.572 0L.118.69z" transform="translate(5.053 5.053)"/>
                            <path d="M6.047.118c.158-.157.414-.157.572 0 .157.158.157.414 0 .571L.689 6.62c-.157.157-.413.157-.57 0-.158-.158-.158-.414 0-.572L6.046.118z" transform="translate(5.053 5.053)"/>
                        </g>
                    </g>
                </g>
            </g>
        </g>
    </g>
</svg>
