<svg xmlns="http://www.w3.org/2000/svg" width="14" height="16" viewBox="0 0 14 16">
    <g fill="none" fill-rule="evenodd">
        <g fill="#666C84" fill-rule="nonzero" stroke="#666C84" stroke-width=".5">
            <g>
                <g>
                    <g>
                        <g>
                            <path d="M1.149 1.543h.342c.103 0 .172-.069.172-.172 0-.102-.069-.171-.172-.171H1.15C.514 1.2 0 1.714 0 2.349v9.702c0 .635.514 1.149 1.149 1.149h9.702c.635 0 1.149-.514 1.149-1.149V2.35c0-.635-.514-1.149-1.149-1.149h-.394c-.103 0-.171.069-.171.171 0 .103.068.172.171.172h.394c.446 0 .806.36.806.806v2.108H.343V2.35c0-.446.36-.806.806-.806zM11.657 4.8v7.251c0 .446-.36.806-.806.806H1.15c-.446 0-.806-.36-.806-.806V4.8h11.314z" transform="translate(-231 -461) translate(34 277) translate(0 25) translate(131 155.346) translate(67 5)"/>
                            <path d="M3.823 1.371c0 .103.068.172.171.172H7.99c.102 0 .171-.069.171-.172 0-.102-.069-.171-.171-.171H3.994c-.085 0-.171.069-.171.171zM2.229 8.057h.857c.291 0 .514-.223.514-.514v-.857c0-.292-.223-.515-.514-.515h-.857c-.292 0-.515.223-.515.515v.857c0 .291.223.514.515.514zm-.172-1.371c0-.103.069-.172.172-.172h.857c.103 0 .171.069.171.172v.857c0 .103-.068.171-.171.171h-.857c-.103 0-.172-.068-.172-.171v-.857zM5.486 8.057h.857c.291 0 .514-.223.514-.514v-.857c0-.292-.223-.515-.514-.515h-.857c-.292 0-.515.223-.515.515v.857c0 .291.223.514.515.514zm-.172-1.371c0-.103.069-.172.172-.172h.857c.103 0 .171.069.171.172v.857c0 .103-.068.171-.171.171h-.857c-.103 0-.172-.068-.172-.171v-.857zM8.743 8.057H9.6c.291 0 .514-.223.514-.514v-.857c0-.292-.223-.515-.514-.515h-.857c-.292 0-.514.223-.514.515v.857c0 .291.222.514.514.514zM8.57 6.686c0-.103.069-.172.172-.172H9.6c.103 0 .171.069.171.172v.857c0 .103-.068.171-.171.171h-.857c-.103 0-.172-.068-.172-.171v-.857zM2.229 11.314h.857c.291 0 .514-.223.514-.514v-.857c0-.292-.223-.514-.514-.514h-.857c-.292 0-.515.222-.515.514v.857c0 .291.223.514.515.514zm-.172-1.371c0-.103.069-.172.172-.172h.857c.103 0 .171.069.171.172v.857c0 .103-.068.171-.171.171h-.857c-.103 0-.172-.068-.172-.171v-.857zM5.486 11.314h.857c.291 0 .514-.223.514-.514v-.857c0-.292-.223-.514-.514-.514h-.857c-.292 0-.515.222-.515.514v.857c0 .291.223.514.515.514zm-.172-1.371c0-.103.069-.172.172-.172h.857c.103 0 .171.069.171.172v.857c0 .103-.068.171-.171.171h-.857c-.103 0-.172-.068-.172-.171v-.857zM8.743 11.314H9.6c.291 0 .514-.223.514-.514v-.857c0-.292-.223-.514-.514-.514h-.857c-.292 0-.514.222-.514.514v.857c0 .291.222.514.514.514zM8.57 9.943c0-.103.069-.172.172-.172H9.6c.103 0 .171.069.171.172v.857c0 .103-.068.171-.171.171h-.857c-.103 0-.172-.068-.172-.171v-.857zM8.571.514V2.23c0 .291.223.514.515.514h.343c.291 0 .514-.223.514-.514V.514C9.943.223 9.72 0 9.429 0h-.343c-.292 0-.515.223-.515.514zm1.029 0V2.23c0 .102-.069.171-.171.171h-.343c-.103 0-.172-.069-.172-.171V.514c0-.103.069-.171.172-.171h.343c.102 0 .171.068.171.171zM2.914 2.743c.292 0 .515-.223.515-.514V.514C3.429.223 3.206 0 2.914 0h-.343c-.291 0-.514.223-.514.514V2.23c0 .291.223.514.514.514h.343zM2.4 2.229V.514c0-.103.069-.171.171-.171h.343c.103 0 .172.068.172.171V2.23c0 .102-.069.171-.172.171h-.343c-.102 0-.171-.069-.171-.171z" transform="translate(-231 -461) translate(34 277) translate(0 25) translate(131 155.346) translate(67 5)"/>
                        </g>
                    </g>
                </g>
            </g>
        </g>
    </g>
</svg>
