<svg xmlns="http://www.w3.org/2000/svg" width="50" height="50" viewBox="0 0 50 50">
    <g fill="none" fill-rule="evenodd">
        <g>
            <g>
                <g>
                    <g fill="#E8E9F7" transform="translate(-1101 -260) translate(1081 242) translate(20 18)">
                        <circle cx="25" cy="25" r="25"/>
                    </g>
                    <g stroke="#A8A8D7" transform="translate(-1101 -260) translate(1081 242) translate(20 18) translate(6 9)">
                        <path stroke-linecap="square" d="M36.5 14.5L36.5 17.5M36.5 19.5L36.5 22.5M.5 9.5L.5 12.5M.5 14.5L.5 17.5"/>
                        <path fill="#A8A8D7" fill-rule="nonzero" stroke-width=".2" d="M24.086 23.247c.223.126.499.113.709-.033l12.253-8.547c.188-.132.296-.35.285-.579-.011-.229-.139-.436-.338-.549L14.327.753c-.207-.12-.463-.116-.668.007L.326 8.707c-.201.124-.322.345-.32.58.003.237.13.454.333.574l8.328 4.697v2.462L.993 12.7c-.32-.181-.727-.068-.907.253-.18.32-.067.727.254.908l8.327 4.688v2.471L.993 16.7c-.32-.181-.727-.068-.907.253-.18.32-.067.727.254.908l23.746 13.386c.223.126.499.113.709-.034l12.253-8.546c.302-.211.376-.627.166-.929-.211-.302-.627-.376-.929-.165l-11.91 8.307-9.042-5.096v-2.47l8.753 4.933c.223.126.499.113.709-.033l12.253-8.547c.302-.211.376-.627.166-.929-.211-.302-.627-.376-.929-.165l-11.91 8.307-9.042-5.096V18.31l8.753 4.937zm4.801-7.767l-3.31 2.31c-.904-.362-1.92-.314-2.787.132l-4.408-2.486 2.693-1.608 4.032-2.4 3.685 2.081c-.316.629-.28 1.376.095 1.971h0zm-4.511 6.4l-8.642-4.87 1.324-.79 5.415 3.053c.223.126.498.113.709-.033.632-.438 1.458-.477 2.13-.1.222.127.499.114.71-.033l4.28-2.987c.186-.13.294-.347.284-.575-.01-.228-.135-.435-.332-.549-.203-.114-.333-.325-.342-.557-.011-.227.096-.444.283-.573.188-.131.295-.35.284-.578-.01-.229-.138-.436-.338-.548l-3.714-2.099 1.328-.79 7.662 4.329-11.041 7.7zm-9.982-5.627l-3.881-2.192 9.712-5.785 2.304-1.372 3.886 2.19-12.02 7.16zm-2.59-4.517L9.05 10.18c.348-.624.34-1.385-.018-2.003l3.71-2.21c.846.345 1.796.33 2.63-.038l3.178 1.792-2.92 1.738-3.824 2.276zm2.205-9.632l7.18 4.045-1.32.786-4.155-2.343c-.208-.118-.464-.115-.67.008-.616.373-1.386.384-2.014.03-.208-.116-.461-.112-.665.01L7.618 7.468c-.205.123-.329.345-.325.584.004.239.135.457.344.573.205.11.333.323.334.556.006.244-.12.471-.33.596-.202.123-.325.344-.321.58.003.237.132.455.339.571l2.828 1.596-1.32.787-7.172-4.046 12.014-7.16zM10 21.771V15.3l4 2.257v6.473l-4-2.26z"/>
                        <circle cx="24" cy="14.667" r="1" fill="#A8A8D7" fill-rule="nonzero" stroke-width=".2"/>
                        <circle cx="12.667" cy="8.667" r="1" fill="#A8A8D7" fill-rule="nonzero" stroke-width=".2"/>
                    </g>
                </g>
            </g>
        </g>
    </g>
</svg>
