<svg xmlns="http://www.w3.org/2000/svg" width="10" height="7" viewBox="0 0 10 7">
    <g fill="none" fill-rule="evenodd">
        <g fill="#417BE2" fill-rule="nonzero">
            <g>
                <g>
                    <g>
                        <path d="M5.975 4.26c-.015-.11-.074-.211-.17-.294L1.518.252C1.365.083 1.094-.006.823.024.55.054.326.197.245.391.163.586.239.798.44.937L4.33 4.31.44 7.681c-.201.139-.277.35-.195.546.081.194.306.337.578.367.271.03.542-.06.696-.228l4.285-3.714c.126-.109.188-.25.171-.393z" transform="translate(-1370 -434) translate(30 367) translate(1340 67) rotate(90 4.5 4.833)"/>
                    </g>
                </g>
            </g>
        </g>
    </g>
</svg>
