<svg xmlns="http://www.w3.org/2000/svg" width="14" height="14" viewBox="0 0 14 14">
    <g fill="none" fill-rule="evenodd">
        <g fill="#417BE2" fill-rule="nonzero" stroke="#417BE2" stroke-width=".5">
            <g>
                <g>
                    <g>
                        <path d="M11.74 2.432L9.567.261c-.327-.327-.858-.327-1.185 0L7.2 1.446s0 0 0 0 0 0 0 0L.491 8.154c-.02.02-.035.042-.047.066l-.007.014c-.011.024-.02.049-.024.074l-.001.004-.388 2.717c-.038.264.049.522.237.71.159.16.368.246.589.246.04 0 .08-.003.121-.009l2.717-.388.004-.001c.025-.004.05-.013.075-.024l.014-.007c.024-.012.046-.028.066-.047l7.893-7.894c.326-.326.326-.858 0-1.183zm-8.091 8.485L1.083 8.351l6.315-6.314 2.565 2.565-6.314 6.315zm-2.756.507c-.088.012-.174-.017-.237-.08s-.092-.15-.08-.237l.31-2.164 2.171 2.171-2.164.31zM11.344 3.22l-.986.987-2.565-2.565.987-.986c.108-.109.286-.109.394 0l2.17 2.17c.109.108.109.286 0 .394z" transform="translate(-1269 -394) translate(38 340) translate(1154 55) translate(78)"/>
                    </g>
                </g>
            </g>
        </g>
    </g>
</svg>
