<?xml version="1.0" encoding="utf-8"?>
<!-- Generator: Adobe Illustrator 23.0.3, SVG Export Plug-In . SVG Version: 6.00 Build 0)  -->
<svg version="1.1" id="Layer_1" xmlns="http://www.w3.org/2000/svg" xmlns:xlink="http://www.w3.org/1999/xlink" x="0px" y="0px"  viewBox="0 0 27 22" style="enable-background:new 0 0 27 22;" xml:space="preserve">
     <g>
        <path fill="#080C5C" d="M19.8,9.3C19.8,9.3,19.8,9.3,19.8,9.3c-0.2,0-0.4,0.1-0.5,0.2l-3,3.4l-1-1.1c-0.1-0.1-0.3-0.2-0.5-0.2
            c-0.2,0-0.4,0.1-0.5,0.2c-0.2,0.3-0.2,0.8,0,1l1.5,1.7c0.1,0.1,0.3,0.2,0.5,0.2c0.2,0,0.3-0.1,0.5-0.2l3.6-4c0.2-0.3,0.2-0.8,0-1.1
            C20.2,9.4,20,9.3,19.8,9.3z"/>
        <path class="st0" d="M4.6,13.6v-1.2H2.7c-0.3,0-0.5-0.3-0.5-0.6V3c0-0.3,0.2-0.6,0.5-0.6h14.5c0.3,0,0.5,0.3,0.5,0.6v2.1h1.5V3
            c0-1.2-0.9-2.2-2-2.2H2.7c-1.1,0-2,1-2,2.2v8.9c0,1.2,0.9,2.2,2,2.2h0.4v3.1l3.6-3.1H8l0-1.6H6L4.6,13.6z"/>
        <path class="st0" d="M24.6,5.1H10.1c-1.1,0-2,1-2,2.2v8.9c0,1.2,0.9,2.2,2,2.2h10.6l3.6,3.1v-3.1h0.4c1.1,0,2-1,2-2.2V7.4
            C26.6,6.1,25.7,5.1,24.6,5.1z M25.1,16.2c0,0.3-0.2,0.6-0.5,0.6h-1.9V18l-1.4-1.2H10.1c-0.3,0-0.5-0.3-0.5-0.6V7.3
            c0-0.3,0.2-0.5,0.4-0.6h14.7c0.3,0,0.5,0.3,0.5,0.6V16.2z"/>
    </g>
</svg>
