<svg xmlns="http://www.w3.org/2000/svg" width="21" height="21" viewBox="0 0 21 21">
    <g fill="none" fill-rule="evenodd">
        <g fill="#417BE2" fill-rule="nonzero">
            <g>
                <g>
                    <g>
                        <path d="M12.427 8.749L18.32 1.55H3.12L9.076 8.75c.124.186.186.372.186.558v6.453l2.917 1.427V9.245c0-.186.124-.372.248-.496zm8.19-7.446l-6.825 8.252v8.873c0 .62-.62.992-1.117.744l-4.53-2.171c-.248-.124-.496-.373-.496-.745v-6.7L.824 1.302C.39.807.762 0 1.444 0h18.552c.683 0 1.055.745.62 1.303z" transform="translate(-416 -275) translate(0 204) translate(416 71) translate(0 .5)"/>
                    </g>
                </g>
            </g>
        </g>
    </g>
</svg>
