<svg xmlns="http://www.w3.org/2000/svg" width="22" height="21" viewBox="0 0 22 21">
    <g fill="none" fill-rule="evenodd">
        <g fill="#080C5C" fill-rule="nonzero" stroke="#080C5C" stroke-width=".5">
            <g>
                <path d="M19.82 8.198c.136-.015.258-.087.337-.197.079-.11.107-.25.077-.382-.258-1.151-.72-2.246-1.366-3.232-.078-.119-.204-.197-.344-.213-.14-.019-.282.028-.384.126-.63.578-1.602.565-2.217-.028-.616-.594-.664-1.563-.11-2.215.092-.106.133-.248.11-.387-.021-.14-.103-.262-.224-.335C14.792.785 13.8.385 12.766.15c-.132-.03-.271-.002-.382.077-.11.079-.183.2-.198.336-.087.813-.773 1.43-1.59 1.43-.818 0-1.504-.617-1.59-1.43C8.99.429 8.917.307 8.807.228c-.111-.079-.25-.107-.383-.077-1.103.248-2.155.685-3.11 1.291-.114.073-.192.191-.215.325-.023.134.013.271.097.377.513.636.464 1.557-.114 2.135-.577.578-1.498.627-2.134.114-.106-.084-.244-.12-.377-.097-.134.023-.252.101-.325.216-.606.953-1.042 2.004-1.29 3.107-.03.132-.001.271.077.382.08.11.201.182.336.197.814.087 1.43.773 1.43 1.59 0 .819-.616 1.505-1.43 1.591-.135.016-.257.087-.336.198-.078.11-.106.25-.077.382.245 1.088.674 2.126 1.267 3.07.072.114.188.193.32.217.133.023.27-.01.376-.092.647-.484 1.55-.417 2.12.156.568.573.627 1.477.138 2.12-.082.106-.115.242-.092.375.023.132.1.249.214.321.959.612 2.016 1.052 3.125 1.301.035.008.07.012.105.012.243 0 .448-.183.475-.425.087-.813.773-1.43 1.59-1.43.818 0 1.504.617 1.59 1.43.016.135.088.257.199.336.11.08.25.108.382.077 1.102-.248 2.153-.684 3.107-1.29.115-.073.193-.19.216-.324.022-.134-.013-.271-.097-.377-.511-.637-.461-1.556.116-2.133.577-.577 1.496-.627 2.133-.115.106.083.243.118.377.097.134-.023.251-.102.324-.216.607-.954 1.044-2.006 1.292-3.11.03-.132.002-.271-.077-.382-.079-.11-.201-.182-.336-.198-.813-.086-1.43-.772-1.43-1.59 0-.818.617-1.504 1.43-1.59h0zm-.637 4.015c-.19.675-.46 1.324-.805 1.935-.983-.492-2.17-.299-2.947.478-.777.777-.97 1.964-.48 2.947-.61.343-1.258.613-1.931.803-.347-1.044-1.324-1.749-2.424-1.749-1.1 0-2.077.705-2.424 1.75-.683-.193-1.339-.467-1.956-.817.468-.982.269-2.153-.498-2.925-.767-.772-1.936-.98-2.922-.519-.336-.601-.6-1.24-.788-1.903 1.045-.347 1.75-1.324 1.75-2.424 0-1.1-.705-2.077-1.75-2.424.19-.673.46-1.322.803-1.931.983.492 2.171.299 2.949-.479s.97-1.966.478-2.95c.61-.343 1.26-.613 1.934-.803.347 1.044 1.323 1.749 2.424 1.749 1.1 0 2.077-.705 2.423-1.75.606.173 1.191.408 1.746.704-.532 1.016-.33 2.26.495 3.056.826.796 2.078.952 3.073.382.366.636.652 1.315.85 2.022-1.044.347-1.75 1.323-1.75 2.424 0 1.1.705 2.077 1.75 2.424h0z" transform="translate(-234 -135) translate(234 136)"/>
                <path d="M10.596 4.592c-2.87 0-5.197 2.326-5.197 5.197 0 2.87 2.326 5.197 5.196 5.197 2.87 0 5.197-2.327 5.198-5.197-.004-2.869-2.328-5.194-5.197-5.197zm0 9.437c-1.715 0-3.262-1.033-3.918-2.618-.656-1.584-.293-3.408.92-4.62 1.212-1.213 3.036-1.576 4.62-.92 1.585.657 2.618 2.203 2.618 3.918-.003 2.34-1.9 4.237-4.24 4.24z" transform="translate(-234 -135) translate(234 136)"/>
                <path d="M10.596 6.699c-1.707 0-3.09 1.384-3.09 3.09 0 1.707 1.383 3.09 3.09 3.09 1.706 0 3.09-1.384 3.09-3.09-.002-1.706-1.385-3.088-3.09-3.09zm0 5.223c-1.178 0-2.133-.955-2.133-2.133s.955-2.133 2.133-2.133 2.133.955 2.133 2.133c-.002 1.178-.956 2.132-2.133 2.133z" transform="translate(-234 -135) translate(234 136)"/>
            </g>
        </g>
    </g>
</svg>
