<?xml version="1.0" encoding="utf-8"?>
<!-- Generator: Adobe Illustrator 23.0.3, SVG Export Plug-In . SVG Version: 6.00 Build 0)  -->
<svg version="1.1" id="Layer_1" xmlns="http://www.w3.org/2000/svg" xmlns:xlink="http://www.w3.org/1999/xlink" x="0px" y="0px" viewBox="0 0 35 21" style="enable-background:new 0 0 35 21;" xml:space="preserve">
    <path fill="#FFFFFF" d="M34.1,16.4c-0.5-1.4-1.3-2.6-2.3-3.4c-0.4-0.3-0.8-0.5-1.2-0.7c1-0.8,1.7-2,1.7-3.4c0-2.3-1.9-4.2-4.3-4.2 c-2.3,0-4.2,1.9-4.2,4.2c0,1.4,0.7,2.6,1.7,3.4c-0.4,0.2-0.8,0.4-1.2,0.7c-0.1,0.1-0.2,0.2-0.3,0.2c-0.5-0.7-1.1-1.2-1.7-1.7 c-0.8-0.7-1.8-1.2-2.8-1.4c1.7-0.8,2.9-2.6,2.9-4.6c0-2.8-2.3-5.2-5.2-5.2c-2.8,0-5.2,2.3-5.2,5.2c0,2,1.2,3.8,2.9,4.7 c-1,0.3-1.9,0.8-2.7,1.4c-0.5,0.4-1,0.9-1.5,1.5c-0.4-0.3-0.8-0.5-1.2-0.7c1-0.8,1.7-2,1.7-3.4c0-2.3-1.9-4.2-4.3-4.2 c-2.3,0-4.2,1.9-4.2,4.2c0,1.4,0.7,2.6,1.7,3.4C4,12.5,3.6,12.7,3.2,13c-1.1,0.8-1.8,2-2.3,3.4c-0.3,0.9-0.2,1.9,0.4,2.7 c0.5,0.7,1.2,1.1,2,1.1h7.1c0.5,0.4,1.1,0.6,1.8,0.6h10.2c0.6,0,1.3-0.2,1.8-0.6c0.1,0,0.1,0,0.2,0h7.4c0.8,0,1.6-0.4,2-1.1 C34.3,18.3,34.4,17.3,34.1,16.4z M25.3,8.9c0-1.5,1.2-2.7,2.7-2.7c1.5,0,2.8,1.2,2.8,2.7c0,1.5-1.2,2.8-2.8,2.8 C26.5,11.7,25.3,10.4,25.3,8.9z M13.5,5.4c0-2,1.6-3.7,3.7-3.7c2,0,3.7,1.6,3.7,3.7c0,2-1.7,3.7-3.7,3.7C15.2,9.1,13.5,7.5,13.5,5.4 z M4.3,8.9c0-1.5,1.2-2.7,2.7-2.7c1.5,0,2.8,1.2,2.8,2.7c0,1.5-1.2,2.8-2.8,2.8C5.5,11.7,4.3,10.4,4.3,8.9z M32.5,18.2 c-0.2,0.3-0.5,0.5-0.8,0.5h-7.4c-0.1,0-0.2,0-0.2,0l-0.4-0.1l-0.3,0.3c-0.3,0.3-0.7,0.4-1.1,0.4H12.2c-0.4,0-0.7-0.1-1-0.4l-0.2-0.2 H3.3c-0.3,0-0.6-0.2-0.8-0.5c-0.3-0.4-0.3-0.9-0.2-1.3c0.4-1.1,1-2,1.8-2.7c0.8-0.7,1.8-1,2.8-1s2,0.4,2.8,1 c0.2,0.1,0.3,0.3,0.5,0.4l0.7,0.7l0.5-0.8c0.5-0.7,1-1.3,1.7-1.8c2.4-1.9,5.8-1.9,8.2,0c0.7,0.6,1.4,1.3,1.9,2.1l0.5,0.9l0.7-0.8 c0.2-0.3,0.5-0.5,0.7-0.7c1.7-1.3,4-1.3,5.7,0c0.8,0.6,1.5,1.6,1.8,2.7C32.8,17.3,32.8,17.8,32.5,18.2z"/>
</svg>
