<svg xmlns="http://www.w3.org/2000/svg" width="23" height="22" viewBox="0 0 23 22">
    <g fill="none" fill-rule="evenodd">
        <g fill="#080C5C" fill-rule="nonzero" stroke="#080C5C" stroke-width=".5">
            <g>
                <path d="M20.772 8.953l-10-8.837c-.177-.156-.44-.156-.616 0l-10 8.837C.058 9.042 0 9.17 0 9.303v.93c0 .255.21.465.465.465H1.86v8.837c0 .256.21.465.466.465h6.279c.255 0 .465-.21.465-.465v-4.186c0-.77.625-1.396 1.395-1.396s1.395.626 1.395 1.396v4.186c0 .256.21.465.466.465h6.279c.255 0 .465-.21.465-.465v-8.837h1.395c.256 0 .465-.21.465-.465v-.93c0-.133-.058-.261-.158-.35zM20 9.767h-1.395c-.256 0-.465.21-.465.466v8.837h-5.35v-3.721c0-1.282-1.043-2.326-2.325-2.326-1.281 0-2.325 1.044-2.325 2.326v3.72H2.79v-8.836c0-.256-.209-.466-.464-.466H.93v-.255l9.535-8.426L20 9.512v.255z" transform="translate(-35 -134) translate(36 135)"/>
            </g>
        </g>
    </g>
</svg>
