<svg xmlns="http://www.w3.org/2000/svg" width="14" height="16" viewBox="0 0 14 16">
    <g fill="none" fill-rule="evenodd">
        <g fill="#417BE2" fill-rule="nonzero">
            <g>
                <g>
                    <path d="M13.08.246C13 .167 12.895.123 12.784.123H.564C.332.123.145.31.145.54l.015 12.732c0 .127.058.248.158.327l1.516 1.207c.152.121.367.121.52 0l1.25-.998 1.252.998c.152.12.366.12.517 0l1.251-.998 1.252.998c.074.059.166.09.26.09.103.006.204-.026.284-.09l1.251-.998 1.251.998c.152.121.368.121.52 0l1.516-1.203c.108-.075.175-.197.18-.33l.07-12.72c.001-.116-.046-.227-.13-.307zm-.776 12.823l-1.101.874-1.251-.999c-.152-.12-.366-.12-.518 0l-1.25 1-1.252-1c-.074-.058-.166-.09-.26-.09-.095 0-.186.032-.26.09l-1.25 1-1.252-1c-.151-.12-.365-.12-.517 0l-1.251 1-1.101-.875L.98.957h11.383l-.06 12.112z" transform="translate(-614 -435) translate(614 435)"/>
                    <path d="M1.919 2.82h2.96c.231 0 .418-.187.418-.418 0-.23-.187-.417-.417-.417H1.919c-.23 0-.417.187-.417.417 0 .23.186.417.417.417zM1.919 4.546h2.96c.231 0 .418-.187.418-.417 0-.23-.187-.417-.417-.417H1.919c-.23 0-.417.187-.417.417 0 .23.186.417.417.417zM8.356 4.546h2.962c.23 0 .417-.187.417-.417 0-.23-.187-.417-.417-.417H8.356c-.23 0-.417.187-.417.417 0 .23.187.417.417.417zM11.007 6.882H2.34c-.23 0-.417.187-.417.417 0 .23.186.417.417.417h8.667c.23 0 .417-.187.417-.417 0-.23-.187-.417-.417-.417zM2.34 9.489h7.253c.23 0 .417-.187.417-.417 0-.23-.187-.418-.417-.418H2.34c-.23 0-.417.187-.417.418 0 .23.186.417.417.417zM10.554 10.427H2.34c-.23 0-.417.187-.417.417 0 .23.186.417.417.417h8.214c.23 0 .417-.186.417-.417 0-.23-.186-.417-.417-.417z" transform="translate(-614 -435) translate(614 435)"/>
                </g>
            </g>
        </g>
    </g>
</svg>
