<svg xmlns="http://www.w3.org/2000/svg" xmlns:xlink="http://www.w3.org/1999/xlink" width="32" height="35" viewBox="0 0 32 35">
    <defs>
        <path id="vyjgc20cua" d="M16 .5c8.837 0 16 7.163 16 16s-7.163 16-16 16-16-7.163-16-16S7.163.5 16 .5zm0 1.6C8.047 2.1 1.6 8.547 1.6 16.5S8.047 30.9 16 30.9s14.4-6.447 14.4-14.4S23.953 2.1 16 2.1z"/>
    </defs>
    <g fill="none" fill-rule="evenodd">
        <g>
            <g>
                <g>
                    <g transform="translate(-524 -275) translate(524 273) translate(0 2.5) translate(0 .5)">
                        <mask id="a2y1157qub" fill="#fff">
                            <use xlink:href="#vyjgc20cua"/>
                        </mask>
                        <use fill="#D9DADF" xlink:href="#vyjgc20cua"/>
                        <path fill="#0DC1F4" stroke="#EAEAF1" stroke-width="3" d="M15 17.5L39.087 4.319 15 -2.5z" mask="url(#a2y1157qub)"/>
                    </g>
                    <g fill="#080C5C" fill-rule="nonzero">
                        <path d="M13.798.26c-.082-.084-.195-.13-.312-.13H.594c-.243 0-.44.197-.44.44L.169 14c0 .135.062.263.168.346l1.599 1.274c.16.128.387.128.548 0l1.32-1.054 1.32 1.054c.16.126.385.126.545 0l1.32-1.054 1.32 1.054c.079.062.176.095.275.095.108.006.215-.028.3-.095l1.32-1.054 1.32 1.054c.16.128.387.128.547 0l1.6-1.27c.114-.079.185-.208.189-.347l.075-13.42c.001-.122-.048-.24-.137-.323zm-.818 13.527l-1.162.922-1.32-1.054c-.16-.126-.385-.126-.545 0l-1.32 1.054-1.32-1.054c-.078-.061-.175-.095-.275-.094-.1 0-.195.033-.273.094l-1.32 1.054-1.32-1.054c-.16-.126-.386-.126-.546 0L2.26 14.71l-1.161-.922L1.034 1.01h12.01l-.064 12.777z" transform="translate(-524 -275) translate(524 273) translate(0 2.5) translate(9 9.5)"/>
                        <path d="M2.024 2.974h3.124c.243 0 .44-.197.44-.44s-.197-.44-.44-.44H2.024c-.243 0-.44.197-.44.44s.197.44.44.44zM2.024 4.796h3.124c.243 0 .44-.197.44-.44s-.197-.44-.44-.44H2.024c-.243 0-.44.197-.44.44s.197.44.44.44zM8.815 4.796h3.124c.243 0 .44-.197.44-.44s-.197-.44-.44-.44H8.815c-.243 0-.44.197-.44.44s.197.44.44.44zM11.612 7.26H2.468c-.243 0-.44.197-.44.44s.197.44.44.44h9.144c.243 0 .44-.197.44-.44s-.197-.44-.44-.44zM2.468 10.01h7.652c.243 0 .44-.197.44-.44s-.197-.44-.44-.44H2.468c-.243 0-.44.197-.44.44s.197.44.44.44zM11.134 11H2.468c-.243 0-.44.197-.44.44s.197.44.44.44h8.666c.243 0 .44-.197.44-.44s-.197-.44-.44-.44z" transform="translate(-524 -275) translate(524 273) translate(0 2.5) translate(9 9.5)"/>
                    </g>
                </g>
            </g>
        </g>
    </g>
</svg>
