<?xml version="1.0" encoding="utf-8"?>
<!-- Generator: Adobe Illustrator 23.0.3, SVG Export Plug-In . SVG Version: 6.00 Build 0)  -->
<svg version="1.1" id="Layer_1" xmlns="http://www.w3.org/2000/svg" xmlns:xlink="http://www.w3.org/1999/xlink" x="0px" y="0px"
	 viewBox="0 0 16 16" style="enable-background:new 0 0 16 16;" xml:space="preserve">
<style type="text/css">
	.st0{fill:#FFA518;stroke:#FFA518;stroke-width:0.5;}
</style>
<g>
	<g>
		<g>
			<g>
				<path class="st0" d="M2.6,12v3.6c0,0.1,0.1,0.2,0.2,0.3c0.1,0.1,0.2,0,0.3,0L7.7,12h5.6c1.5,0,2.7-1.2,2.7-2.7V2.8
					c0-1.5-1.2-2.7-2.7-2.7H2.7C1.2,0.1,0,1.3,0,2.8v6.5C0,10.7,1.1,11.9,2.6,12z M0.6,2.8c0-1.1,0.9-2.1,2.1-2.1h10.6
					c1.1,0,2.1,0.9,2.1,2.1v6.5c0,1.1-0.9,2.1-2.1,2.1H7.6c-0.1,0-0.1,0-0.2,0.1l-4.2,3.4v-3.2c0-0.1,0-0.2-0.1-0.2S3,11.4,2.9,11.4
					H2.7c-1.1,0-2.1-0.9-2.1-2.1V2.8L0.6,2.8z M3.8,3.8c0-0.1,0-0.2,0.1-0.2S4,3.5,4.1,3.5h7.8c0.1,0,0.2,0.1,0.3,0.2
					c0.1,0.1,0.1,0.2,0,0.3c-0.1,0.1-0.2,0.2-0.3,0.2H4.1C4,4.1,3.9,4.1,3.9,4S3.8,3.9,3.8,3.8z M3.8,6.1c0-0.1,0-0.2,0.1-0.2
					S4,5.7,4.1,5.7h7.8c0.1,0,0.2,0.1,0.3,0.2c0.1,0.1,0.1,0.2,0,0.3c-0.1,0.1-0.2,0.2-0.3,0.2H4.1c-0.1,0-0.2,0-0.2-0.1
					S3.8,6.1,3.8,6.1C3.8,6.1,3.8,6.1,3.8,6.1z M3.8,8.3c0-0.1,0-0.2,0.1-0.2S4,8,4.1,8h4.3c0.1,0,0.2,0.1,0.3,0.2
					c0.1,0.1,0.1,0.2,0,0.3C8.6,8.6,8.5,8.6,8.4,8.6H4.1c-0.1,0-0.2,0-0.2-0.1S3.8,8.4,3.8,8.3z"/>
			</g>
		</g>
	</g>
</g>
</svg>
