<svg xmlns="http://www.w3.org/2000/svg" width="16" height="16" viewBox="0 0 16 16">
    <g fill="none" fill-rule="evenodd">
        <g fill="#417BE2" fill-rule="nonzero" stroke="#417BE2" stroke-width=".5">
            <g>
                <g>
                    <path d="M2.585 11.996v3.565c0 .124.072.237.184.29.112.052.245.035.34-.044l4.59-3.809h5.597c1.493-.002 2.702-1.211 2.704-2.704v-6.47C15.998 1.33 14.789.12 13.296.118H2.704C1.211.121.002 1.33 0 2.823v6.471c.002 1.447 1.14 2.636 2.585 2.702zM.64 2.823C.64 1.683 1.565.76 2.704.76h10.592c1.14.001 2.063.925 2.064 2.064v6.471c-.001 1.14-.925 2.063-2.064 2.064H7.584c-.075 0-.147.026-.204.074L3.225 14.88v-3.202c0-.085-.034-.166-.094-.226s-.141-.094-.226-.094h-.201C1.564 11.357.641 10.434.64 9.294v-6.47zm3.125.983c0-.084.033-.166.093-.226s.142-.094.227-.094h7.83c.114 0 .22.061.277.16.058.1.058.222 0 .32-.057.1-.163.16-.277.16h-7.83c-.085 0-.167-.033-.227-.093s-.093-.142-.093-.227zm0 2.253c0-.085.033-.166.093-.226s.142-.094.227-.094h7.83c.114 0 .22.06.277.16.058.099.058.221 0 .32-.057.1-.163.16-.277.16h-7.83c-.085 0-.167-.034-.227-.094s-.093-.141-.093-.226h0zm0 2.252c0-.084.033-.166.093-.226s.142-.094.227-.094h4.274c.115 0 .22.061.278.16.057.1.057.221 0 .32-.058.1-.163.16-.278.16H4.085c-.085 0-.167-.033-.227-.093s-.093-.142-.093-.227z" transform="translate(-1302 -638) translate(30 367) translate(1272 271)"/>
                </g>
            </g>
        </g>
    </g>
</svg>
