<?xml version="1.0" encoding="utf-8"?>
<!-- Generator: Adobe Illustrator 23.0.3, SVG Export Plug-In . SVG Version: 6.00 Build 0)  -->
<svg version="1.1" id="Layer_1" xmlns="http://www.w3.org/2000/svg" xmlns:xlink="http://www.w3.org/1999/xlink" x="0px" y="0px"
	 viewBox="0 0 25 20" style="enable-background:new 0 0 25 20;" xml:space="preserve"> 
	<g>
		<path fill="#080C5C" d="M24,11C24,11,24,11,24,11l0-1.5c0-0.1,0-0.2-0.1-0.2c0.1-0.1,0.2-0.3,0.2-0.5c0-0.2-0.1-0.4-0.3-0.5l-14-8
			c-0.2-0.1-0.4-0.1-0.6,0l-8.2,5C1,5.4,0.9,5.6,0.9,5.8c0,0.2,0.1,0.3,0.2,0.4C1,6.3,1,6.4,1,6.5v1.4C1,8,0.9,8,0.9,8
			C0.8,8.2,0.8,8.5,1,8.7v1.8c0,0-0.1,0.1-0.1,0.1c-0.1,0.3-0.1,0.6,0.2,0.8l14.6,8.4c0.1,0,0.2,0.1,0.3,0.1c0.1,0,0.2,0,0.3-0.1
			l7.5-5.3c0.3-0.2,0.3-0.5,0.1-0.8c0,0,0,0,0,0v-1.8C24.2,11.5,24.2,11.2,24,11z M17,5.7L9.9,10L7.8,8.8l7.1-4.3L17,5.7z M6.8,5.2
			l2.1-1.3c0.5,0.2,1.1,0.2,1.6,0l1.7,1L8.3,7.2L6.8,6.3C6.9,5.9,6.9,5.5,6.8,5.2z M13.2,4.2l-2.5-1.4c-0.2-0.1-0.4-0.1-0.6,0
			C9.9,3,9.4,3,9.1,2.8c-0.2-0.1-0.4-0.1-0.6,0L5.6,4.5C5.4,4.6,5.3,4.8,5.3,5c0,0.2,0.1,0.4,0.3,0.5c0.1,0,0.1,0.1,0.1,0.2
			c0,0.1,0,0.2-0.1,0.2C5.5,6.1,5.4,6.3,5.4,6.5c0,0.2,0.1,0.4,0.3,0.5l1.5,0.9L6.6,8.1L2.5,5.8l7.1-4.3l4.1,2.4L13.2,4.2z M9.5,11.1
			v3.7l-2.2-1.2V9.8L9.5,11.1z M16,13.5l-5-2.9l0.5-0.3l3.3,1.9c0.2,0.1,0.4,0.1,0.6,0c0.3-0.2,0.8-0.3,1.1-0.1
			c0.2,0.1,0.4,0.1,0.6,0l2.6-1.9c0.2-0.1,0.2-0.3,0.2-0.5c0-0.2-0.1-0.4-0.3-0.5c-0.1,0-0.1-0.1-0.1-0.2c0-0.1,0-0.2,0.1-0.2
			c0.2-0.1,0.2-0.3,0.2-0.5c0-0.2-0.1-0.4-0.3-0.5l-2.1-1.2l0.5-0.3l4.4,2.5L16,13.5z M18.6,9.6L16.7,11c-0.6-0.2-1.2-0.2-1.7,0.1
			l-2.4-1.4l3.8-2.3l2.1,1.2C18.4,8.9,18.4,9.3,18.6,9.6z M23,11L16,16l-5.4-3.1v-1.2l5.2,3l0,0h0c0.2,0.1,0.4,0.1,0.6-0.1L23,9.9V11
			z M6.2,9.2v1.2L2,8V6.8L6.2,9.2z M6.2,11.7v1.2L2,10.5V9.3L6.2,11.7z M23,13.5l-7,5l-5.4-3.1v-1.2l5.2,3c0.2,0.1,0.4,0.1,0.6,0
			l6.6-4.7L23,13.5C23,13.5,23,13.5,23,13.5z"/>
		<circle fill="#080C5C" cx="15.8" cy="9.2" r="1"/>
		<circle fill="#080C5C" cx="8.8" cy="5.4" r="1"/>
	</g>
</svg>
