<svg xmlns="http://www.w3.org/2000/svg" width="50" height="50" viewBox="0 0 50 50">
    <g fill="none" fill-rule="evenodd">
        <g>
            <g>
                <g>
                    <g fill="#E8E9F7" transform="translate(-314 -260) translate(294 242) translate(20 18)">
                        <circle cx="25" cy="25" r="25"/>
                    </g>
                    <g fill="#A8A8D7" fill-rule="nonzero">
                        <path stroke="#A8A8D7" d="M25.35 6.65l-6-6C19.26.553 19.133.498 19 .5H4.43c-1.064.005-1.925.866-1.93 1.93V12c0 .276.224.5.5.5s.5-.224.5-.5V2.43c0-.514.416-.93.93-.93H18.5V7c0 .276.224.5.5.5h5.5v20.07c0 .514-.416.93-.93.93H4.43c-.514 0-.93-.416-.93-.93V25c0-.276-.224-.5-.5-.5s-.5.224-.5.5v2.57c.005 1.064.866 1.925 1.93 1.93h19.14c1.064-.005 1.925-.866 1.93-1.93V7c.002-.133-.053-.26-.15-.35zM19.5 2.21l4.29 4.29H19.5V2.21z" transform="translate(-314 -260) translate(294 242) translate(20 18) translate(12 10)"/>
                        <path d="M21.67 21.88v-6.76c.003-.429-.166-.84-.468-1.145-.302-.304-.713-.475-1.142-.475H2.29c-.895 0-1.62.725-1.62 1.62v6.76c0 .43.17.842.474 1.146.304.303.716.474 1.146.474h17.77c.429 0 .84-.171 1.142-.475.302-.304.47-.716.468-1.145zM6.9 21.11H6L3 17.3v3.81h-.89v-5.22H3l3 3.9v-3.9h.9v5.22zm5.2 0H8.35v-5.22H12v.83H9.23v1.38h2.5v.78h-2.5v1.4h2.87v.83zm5.44 0l-1.1-3.58h-.06l-1.09 3.58h-.88l-1.82-5.22h.95l1.31 3.76L16 15.89h.79L18 19.65l1.32-3.76h.94l-1.82 5.22h-.9z" transform="translate(-314 -260) translate(294 242) translate(20 18) translate(12 10)"/>
                    </g>
                </g>
            </g>
        </g>
    </g>
</svg>
