<svg version="1.1" id="Layer_1" xmlns="http://www.w3.org/2000/svg" xmlns:xlink="http://www.w3.org/1999/xlink" x="0px" y="0px" viewBox="0 0 24 24" style="enable-background:new 0 0 24 24;" xml:space="preserve">
	<g>
		<path fill="#C0C2DA" d="M23.9,11.4l-2.1-2.7l0.2-3.5c0-0.4-0.3-0.7-0.7-0.9L18,3.3l-1.9-3c-0.4-0.4-0.8-0.4-1-0.3L12,1.3L9,0.1
			C8.8,0,8.6,0,8.4,0.1C8.2,0.1,8,0.3,7.9,0.4L6.1,3.3L2.8,4.2C2.4,4.4,2.2,4.7,2.2,5.1l0.1,3.7l-2.2,2.8c-0.1,0.3-0.1,0.6,0,1
			l2.1,2.7l-0.2,3.5c0,0.4,0.3,0.7,0.7,0.9L6,20.7l1.8,2.9c0.1,0.2,0.3,0.3,0.5,0.4c0.1,0,0.2,0,0.3,0c0.1,0,0.2,0,0.3-0.1l3.1-1.3
			l3.1,1.3l0.3,0c0.3,0,0.6-0.1,0.7-0.4l1.9-2.9l3.3-1.1c0.4-0.1,0.6-0.5,0.6-0.9l-0.2-3.5l2.2-2.8C24,12.1,24,11.7,23.9,11.4z
			M20.2,14.5C20,14.7,20,14.9,20,15.1l0.2,3l-2.9,0.8c-0.2,0-0.4,0.2-0.5,0.4L15.1,22l-2.8-1.1l-0.3,0c-0.2,0-0.3,0-0.4,0.2
			l-2.7,1.1l-1.7-2.8C7,19.2,6.9,19.1,6.7,19l-2.9-0.8L4,15c0-0.1,0-0.4-0.2-0.5L2,12l1.9-2.5c0.2-0.2,0.2-0.4,0.2-0.6L3.9,5.8L6.8,5
			c0.2,0,0.4-0.2,0.5-0.4l1.6-2.7L11.8,3l0.4,0l2.9-1.1l1.7,2.7C17,4.8,17.1,4.9,17.3,5l2.9,0.8L20,9c0,0.1,0,0.4,0.2,0.5L22,12
			L20.2,14.5z"/>
		<path fill="#C0C2DA" d="M16.7,12.3c-1-0.5-2.1-0.2-2.9,0.6c-0.8,0.8-1,2-0.6,3.1c0.5,1.1,1.4,1.8,2.5,1.8c1.4,0,2.6-1.2,2.7-2.8
			C18.3,13.8,17.7,12.8,16.7,12.3z M16.1,15.9C15.7,16,15.2,16,15,15.7c-0.3-0.3-0.4-0.8-0.2-1.2c0.2-0.6,0.6-0.7,0.9-0.7
			c0.5,0,1,0.6,1.1,1.1C16.8,15.3,16.4,15.8,16.1,15.9z"/>
		<path fill="#C0C2DA" d="M16.6,7.4c-0.1-0.1-0.2-0.5-0.7-0.5c-0.2,0-0.6,0-0.8,0.3l-6.5,8.7c-0.3,0.2-0.4,0.6-0.2,1
			c0.1,0.1,0.2,0.5,0.7,0.5c0.1,0,0.2-0.1,0.3-0.1c0.1,0,0.1-0.1,0.3-0.1l0.1,0l6.6-8.8C16.6,8.1,16.7,7.7,16.6,7.4z M16.2,7.5
			C16.2,7.5,16.2,7.5,16.2,7.5L16.2,7.5L16.2,7.5z"/>
		<path fill="#C0C2DA" d="M11.8,9.6c0-1.5-1.2-2.8-2.7-2.8S6.4,8.1,6.4,9.6c0,1.5,1.2,2.8,2.7,2.8C10.6,12.4,11.8,11.2,11.8,9.6z
			M8.1,9.6c0-0.6,0.4-1,1-1c0.3,0,0.6,0.1,0.8,0.4C10,9,10.1,9.2,10.1,9.6c0,0.6-0.4,1-1,1C8.6,10.6,8.1,10.2,8.1,9.6z"/>
	</g>
</svg>
