<?xml version="1.0" encoding="utf-8"?>
<!-- Generator: Adobe Illustrator 23.0.3, SVG Export Plug-In . SVG Version: 6.00 Build 0)  -->
<svg version="1.1" id="Layer_1" xmlns="http://www.w3.org/2000/svg" xmlns:xlink="http://www.w3.org/1999/xlink" x="0px" y="0px"
	 viewBox="0 0 15 20" style="enable-background:new 0 0 15 20;" xml:space="preserve">
<style type="text/css">
	.st0{fill:#C0C2DA;}
</style>
<g>
	<path class="st0" d="M6.9,0C4.2,0.2,1.8,1.9,0.7,4.3c-1.2,2.6-0.9,5.6,0.8,7.9l5.4,7.5C7.1,19.9,7.3,20,7.5,20
		c0.2,0,0.4-0.1,0.6-0.3l5.4-7.5c1.7-2.3,2-5.3,0.8-7.9C13.2,1.9,10.8,0.2,8.1,0C7.7,0,7.3,0,6.9,0L6.9,0z M13,4.9
		c1,2.1,0.7,4.6-0.6,6.5l-4.9,6.7l-4.9-6.7C1.3,9.5,1,7,2,4.9c0.9-2,2.8-3.4,5-3.5c0.2,0,0.3,0,0.5,0c0.2,0,0.3,0,0.5,0
		C10.2,1.6,12.1,2.9,13,4.9L13,4.9L13,4.9z"/>
	<path class="st0" d="M4.3,7.5c0,1.8,1.4,3.2,3.2,3.2s3.2-1.4,3.2-3.2S9.3,4.3,7.5,4.3C5.7,4.3,4.3,5.7,4.3,7.5z M9.3,7.5
		c0,1-0.8,1.8-1.8,1.8c-1,0-1.8-0.8-1.8-1.8c0-1,0.8-1.8,1.8-1.8C8.5,5.7,9.3,6.5,9.3,7.5L9.3,7.5z"/>
</g>
</svg>
