<svg xmlns="http://www.w3.org/2000/svg" xmlns:xlink="http://www.w3.org/1999/xlink" width="32" height="34" viewBox="0 0 32 34">
    <defs>
        <path id="0fyr6sbf3a" d="M16 .5c8.837 0 16 7.163 16 16s-7.163 16-16 16-16-7.163-16-16S7.163.5 16 .5zm0 1.6C8.047 2.1 1.6 8.547 1.6 16.5S8.047 30.9 16 30.9s14.4-6.447 14.4-14.4S23.953 2.1 16 2.1z"/>
    </defs>
    <g fill="none" fill-rule="evenodd">
        <g>
            <g>
                <g>
                    <g transform="translate(-692 -276) translate(692 273) translate(0 3) translate(0 .5)">
                        <mask id="t29yanrj6b" fill="#fff">
                            <use xlink:href="#0fyr6sbf3a"/>
                        </mask>
                        <use fill="#D4D5DB" xlink:href="#0fyr6sbf3a"/>
                        <path fill="#FFA518" stroke="#FFF" stroke-width="3" d="M15 17.5L25.138 0.5 15 -2.5z" mask="url(#t29yanrj6b)"/>
                    </g>
                    <path fill="#F3953E" fill-rule="nonzero" stroke="#F3953E" stroke-width=".5" d="M7.088 10.787v10.938c0 .262.175.438.437.438h2.494c.219.83.962 1.487 1.837 1.487s1.663-.612 1.838-1.487H20.387c.22.83.963 1.487 1.838 1.487.875 0 1.662-.612 1.837-1.487h.7c.263 0 .438-.175.438-.438V18.05c0-.088-.044-.175-.087-.262l-2.407-3.632c-.087-.131-.218-.175-.35-.175h-2.275v-3.194c0-.262-.175-.437-.437-.437H7.525c-.263 0-.438.219-.438.438zM11.9 22.776c-.569 0-1.05-.481-1.05-1.05 0-.569.481-1.05 1.05-1.05.569 0 1.05.481 1.05 1.006 0 0 0 0 0 0s0 0 0 0c-.044.613-.481 1.094-1.05 1.094zm10.369 0c-.569 0-1.05-.481-1.05-1.05 0-.569.481-1.05 1.05-1.05.569 0 1.05.481 1.05 1.05 0 .569-.482 1.05-1.05 1.05zm-.044-7.919l2.188 3.325v3.107h-.263c-.219-.832-.962-1.488-1.837-1.488s-1.663.613-1.838 1.488h-.263v-6.432h2.013zM7.962 11.225h11.332V21.288h-5.556c-.22-.832-.963-1.488-1.838-1.488-.875 0-1.662.613-1.838 1.488H8.006V11.225h-.043z" transform="translate(-692 -276) translate(692 273) translate(0 3)"/>
                </g>
            </g>
        </g>
    </g>
</svg>
