<svg xmlns="http://www.w3.org/2000/svg" width="50" height="50" viewBox="0 0 50 50">
    <g fill="none" fill-rule="evenodd">
        <g>
            <g>
                <g>
                    <g fill="#E8E9F7" transform="translate(-838 -260) translate(819 242) translate(19 18)">
                        <circle cx="25" cy="25" r="25"/>
                    </g>
                    <path fill="#A8A8D7" fill-rule="nonzero" stroke="#A8A8D7" stroke-width=".5" d="M14.213 40.385V37.72v-6.403-7.744-6.666V14.7c0-.346.029-.703 0-1.049v-.047c-.334.14-.668.276-1.002.416.61.633 1.218 1.271 1.827 1.904.235.24.592.2.826 0 .75-.633 1.5-1.265 2.25-1.904h-.826c.685.668 1.37 1.336 2.056 1.998.234.228.592.216.826 0 .715-.668 1.435-1.336 2.15-1.998h-.826c.65.633 1.306 1.266 1.956 1.904.229.223.598.223.826 0 .645-.633 1.289-1.265 1.933-1.904h-.826c.691.633 1.383 1.266 2.074 1.904.246.228.58.21.826 0 .75-.633 1.5-1.265 2.25-1.904h-.827c.68.633 1.36 1.266 2.039 1.904.246.228.58.21.826 0 .744-.633 1.488-1.265 2.232-1.904-.334-.14-.668-.275-1.002-.416V39.29c0 .345-.03.702 0 1.048v.047c.334-.14.668-.275 1.002-.416-.739-.633-1.482-1.26-2.22-1.892-.247-.205-.586-.234-.827 0-.65.633-1.306 1.26-1.956 1.892h.826c-.715-.633-1.435-1.26-2.15-1.892-.234-.205-.597-.24-.826 0-.62.633-1.242 1.26-1.857 1.892h.826c-.732-.597-1.47-1.195-2.202-1.792-.264-.211-.568-.223-.826 0-.691.597-1.394 1.195-2.097 1.792h.826l-2.056-1.986c-.235-.228-.592-.216-.826 0-.715.662-1.435 1.324-2.15 1.986h.826c-.715-.662-1.435-1.324-2.15-1.986-.228-.21-.603-.234-.826 0-.644.662-1.283 1.324-1.927 1.986-.527.539.304 1.37.826.826.644-.662 1.283-1.324 1.927-1.986h-.826c.715.662 1.435 1.324 2.15 1.986.24.223.586.223.826 0 .714-.662 1.435-1.324 2.15-1.986h-.826l2.056 1.986c.24.234.585.21.826 0 .703-.598 1.4-1.195 2.103-1.792h-.826c.732.597 1.47 1.194 2.202 1.792.246.2.586.246.826 0 .621-.633 1.242-1.26 1.857-1.892h-.826c.715.633 1.435 1.26 2.15 1.892.24.21.586.234.826 0 .65-.633 1.306-1.26 1.956-1.892h-.826c.738.633 1.482 1.26 2.22 1.892.375.316 1.002.123 1.002-.416v-2.665-6.403-7.744-6.666c0-1.083.047-2.173 0-3.257v-.047c0-.538-.627-.732-1.002-.415-.744.632-1.487 1.265-2.231 1.903h.826c-.68-.632-1.36-1.265-2.039-1.903-.246-.229-.58-.211-.826 0-.75.632-1.5 1.265-2.25 1.903h.827c-.692-.632-1.383-1.265-2.074-1.903-.234-.217-.592-.229-.826 0-.644.632-1.289 1.265-1.933 1.903h.826c-.65-.632-1.306-1.265-1.956-1.903-.235-.229-.592-.217-.826 0-.715.667-1.436 1.335-2.15 1.997h.826c-.686-.668-1.371-1.335-2.056-1.997-.24-.235-.586-.205-.826 0-.75.632-1.5 1.265-2.25 1.903h.826c-.609-.632-1.218-1.265-1.827-1.903-.358-.37-1.002-.088-1.002.415V37.075c0 1.084-.041 2.174 0 3.257v.047c0 .762 1.172.762 1.172.006z" transform="translate(-838 -260) translate(819 242) translate(19 18)"/>
                    <path fill="#A8A8D7" fill-rule="nonzero" stroke="#A8A8D7" stroke-width=".5" d="M29.689 21.832H18.336c-.62 0-1.124-.343-1.124-.766h0c0-.423.503-.767 1.124-.767h11.347c.62 0 1.125.344 1.125.767h0c.005.423-.498.766-1.12.766z" transform="translate(-838 -260) translate(819 242) translate(19 18)"/>
                    <path fill="#A8A8D7" fill-rule="nonzero" stroke="#A8A8D7" stroke-width=".5" d="M29.689 21.632H18.828c-.158 0-.322.004-.48 0-.732-.02-1.142-.63-.568-.985.387-.24 1.183-.148 1.658-.148h10.186c.498.004.943.255.89.623-.04.295-.404.502-.825.51-.375.008-.375.408 0 .4.896-.02 1.581-.571 1.382-1.182-.146-.455-.756-.742-1.417-.75-.657-.008-1.318 0-1.975 0h-7.398c-.638 0-1.277-.012-1.91 0-.697.012-1.306.323-1.423.806-.146.595.533 1.11 1.394 1.13 1.734.035 3.474 0 5.208 0 2.009 0 4.018.023 6.027 0h.112c.375-.004.375-.404 0-.404zM29.689 27.48H18.336c-.62 0-1.124-.344-1.124-.767h0c0-.423.503-.766 1.124-.766h11.347c.62 0 1.125.343 1.125.766h0c.005.423-.498.766-1.12.766z" transform="translate(-838 -260) translate(819 242) translate(19 18)"/>
                    <path fill="#A8A8D7" fill-rule="nonzero" stroke="#A8A8D7" stroke-width=".5" d="M29.689 27.28H18.828c-.158 0-.322.004-.48 0-.732-.02-1.142-.63-.568-.986.387-.24 1.183-.148 1.658-.148h10.186c.498.004.943.256.89.623-.04.295-.404.499-.825.51-.375.009-.375.408 0 .4.896-.02 1.581-.57 1.382-1.181-.146-.455-.756-.743-1.417-.75-.657-.009-1.318 0-1.975 0h-7.398c-.638 0-1.277-.013-1.91 0-.697.011-1.306.322-1.423.805-.146.595.533 1.11 1.394 1.13 1.734.036 3.474 0 5.208 0 2.009 0 4.018.024 6.027 0h.112c.375-.004.375-.403 0-.403zM29.689 32.794H18.336c-.62 0-1.124-.343-1.124-.766h0c0-.423.503-.767 1.124-.767h11.347c.62 0 1.125.344 1.125.767h0c.005.423-.498.766-1.12.766z" transform="translate(-838 -260) translate(819 242) translate(19 18)"/>
                    <path fill="#A8A8D7" fill-rule="nonzero" stroke="#A8A8D7" stroke-width=".5" d="M29.689 32.594H18.828c-.158 0-.322.004-.48 0-.732-.02-1.142-.63-.568-.985.387-.24 1.183-.148 1.658-.148h10.186c.498.004.943.255.89.623-.04.295-.404.502-.825.51-.375.008-.375.407 0 .4.896-.02 1.581-.571 1.382-1.182-.146-.455-.756-.742-1.417-.75-.657-.008-1.318 0-1.975 0h-7.398c-.638 0-1.277-.012-1.91 0-.697.012-1.306.323-1.423.806-.146.595.533 1.11 1.394 1.13 1.734.035 3.474 0 5.208 0 2.009 0 4.018.023 6.027 0h.112c.375-.005.375-.404 0-.404z" transform="translate(-838 -260) translate(819 242) translate(19 18)"/>
                    <g transform="translate(-838 -260) translate(819 242) translate(19 18) translate(23 7)">
                        <circle cx="9.563" cy="9.563" r="8.301" fill="#E8E9F7"/>
                        <path fill="#A7A7D7" fill-rule="nonzero" stroke="#A7A7D7" d="M8.925 0C6.539 0 4.299.928 2.614 2.614.928 4.299 0 6.539 0 8.924c0 2.386.928 4.627 2.614 6.312 1.685 1.685 3.925 2.614 6.31 2.614 2.386 0 4.627-.929 6.312-2.614 1.685-1.685 2.614-3.926 2.614-6.311 0-2.386-.929-4.626-2.614-6.311C13.551.928 11.31 0 8.925 0zm5.824 14.75c-1.556 1.555-3.625 2.41-5.824 2.41-2.2 0-4.269-.855-5.825-2.41C1.545 13.192.685 11.123.685 8.924c0-2.2.86-4.269 2.415-5.825C4.656 1.545 6.726.685 8.925.685c2.199 0 4.268.86 5.824 2.415 1.556 1.556 2.412 3.626 2.412 5.825 0 2.199-.856 4.268-2.412 5.824z"/>
                        <path fill="#A8A8D7" fill-rule="nonzero" stroke="#A8A8D7" stroke-width=".5" d="M5.536 11.607v1.05H4.96c-.319 0-.592.234-.592.538 0 .29.258.538.592.538h7.337c.32 0 .593-.234.593-.538 0-.29-.259-.539-.593-.539h-.577v-1.05c0-.704-.35-1.353-.942-1.808L9.562 8.9l1.215-.898c.592-.442.942-1.104.942-1.809v-1.05h.577c.32 0 .593-.234.593-.538 0-.304-.259-.538-.593-.538H4.96c-.319 0-.592.234-.592.538 0 .304.258.539.592.539h.577v1.05c0 .704.35 1.353.942 1.808l1.215.898-1.215.898c-.607.455-.942 1.104-.942 1.809zm1.17-5.4v-1.05h3.813v1.05c0 .373-.182.732-.501.967L8.62 8.21 7.222 7.174c-.319-.235-.516-.594-.516-.967zm.516 4.433L8.62 9.604l1.398 1.036c.319.235.5.594.5.967v1.05H6.707v-1.05c0-.373.197-.732.516-.967z"/>
                    </g>
                </g>
            </g>
        </g>
    </g>
</svg>
