<svg xmlns="http://www.w3.org/2000/svg" width="50" height="50" viewBox="0 0 50 50">
    <g fill="none" fill-rule="evenodd">
        <g>
            <g>
                <g transform="translate(-51 -260) translate(32 242) translate(19 18)">
                    <circle cx="25" cy="25" r="25" fill="#E8E9F7"/>
                    <g>
                        <g fill="#A7A7D7" fill-rule="nonzero" stroke="#A7A7D7" stroke-width="1.5">
                            <path d="M17.421 3.05L14.187.04l-.02-.016-.007-.004-.017-.008-.007-.003c-.007-.003-.014-.005-.022-.006l-.003-.001L14.085 0H.152C.068 0 0 .066 0 .147V23.49c0 .081.068.147.152.147h17.164c.084 0 .152-.066.152-.147V3.155c0-.04-.017-.078-.047-.106zM14.234.491h0l1.284 1.194 1.583 1.472h-2.867V.492h0zM.304 23.344V.294H13.93v3.011c0 .081.068.147.152.147h3.082v19.892H.304z" transform="translate(12.345 6.897) translate(0 8.024)"/>
                            <path d="M14.105 18.95H3.363c-.083 0-.15.043-.15.097 0 .054.067.098.15.098h10.742c.083 0 .15-.044.15-.098 0-.054-.067-.098-.15-.098zM14.105 14.652H3.363c-.083 0-.15.043-.15.097 0 .054.067.098.15.098h10.742c.083 0 .15-.044.15-.098 0-.054-.067-.097-.15-.097zM14.105 10.158H3.363c-.083 0-.15.044-.15.098 0 .054.067.098.15.098h10.742c.083 0 .15-.044.15-.098 0-.054-.067-.098-.15-.098z" transform="translate(12.345 6.897) translate(0 8.024)"/>
                        </g>
                        <g>
                            <g transform="translate(12.345 6.897) translate(9.494) translate(.326)">
                                <circle cx="9.579" cy="9.579" r="8.301" fill="#E8E9F7"/>
                                <path fill="#A7A7D7" fill-rule="nonzero" stroke="#A7A7D7" stroke-width="1.5" d="M8.94.015c-2.385 0-4.626.928-6.311 2.614C.943 4.314.015 6.555.015 8.94s.928 4.626 2.614 6.311c1.685 1.685 3.926 2.614 6.311 2.614s4.626-.929 6.311-2.614c1.685-1.685 2.614-3.926 2.614-6.311s-.929-4.626-2.614-6.311C13.566.943 11.325.015 8.94.015zm5.824 14.75c-1.556 1.555-3.625 2.411-5.824 2.411s-4.268-.856-5.824-2.412S.7 11.14.7 8.94s.86-4.268 2.416-5.824S6.74.7 8.94.7s4.268.86 5.824 2.416 2.412 3.625 2.412 5.824-.856 4.268-2.412 5.824z"/>
                                <path fill="#A7A7D7" fill-rule="nonzero" stroke="#A7A7D7" d="M11.367 9.168s0 0 0 0l-2.617.004V5.535c0-.19-.152-.342-.343-.342-.19 0-.342.152-.342.342v3.98c0 .09.042.174.107.24.064.064.155.098.247.098 0 0 0 0 0 0l2.948-.004c.19 0 .342-.152.342-.342 0-.19-.152-.339-.342-.339z"/>
                            </g>
                        </g>
                    </g>
                </g>
            </g>
        </g>
    </g>
</svg>
