<?xml version="1.0" encoding="utf-8"?>
<!-- Generator: Adobe Illustrator 23.0.3, SVG Export Plug-In . SVG Version: 6.00 Build 0)  -->
<svg version="1.1" id="Layer_1" xmlns="http://www.w3.org/2000/svg" xmlns:xlink="http://www.w3.org/1999/xlink" x="0px" y="0px"
	 viewBox="0 0 17 21" style="enable-background:new 0 0 17 21;" xml:space="preserve"> 
<g>
	<path fill="#080C5C" class="st0" d="M16.1,3.2l-3-2.8l-11.5,0c-0.4,0-0.7,0.3-0.7,0.7v18.8c0,0.4,0.3,0.7,0.7,0.7h13.8c0.4,0,0.7-0.3,0.7-0.7V4.1
		V3.2z M13.5,2.9V2.8l0.2,0.2H13.5z M12.8,4.4h1.9v14.8H2.3V1.8h9.8v1.8C12.1,4.1,12.4,4.4,12.8,4.4z"/>
	<path fill="#080C5C" d="M12.8,15.6H4.2c-0.4,0-0.7,0.3-0.7,0.7S3.8,17,4.2,17h8.6c0.4,0,0.7-0.3,0.7-0.7S13.2,15.6,12.8,15.6z"/>
	<path fill="#080C5C" d="M12.8,12.2H4.2c-0.4,0-0.7,0.3-0.7,0.7s0.3,0.7,0.7,0.7h8.6c0.4,0,0.7-0.3,0.7-0.7S13.2,12.2,12.8,12.2z"/>
	<path fill="#080C5C" d="M3.5,9.2c0,0.4,0.3,0.7,0.7,0.7h8.6c0.4,0,0.7-0.3,0.7-0.7c0-0.4-0.3-0.7-0.7-0.7H4.2C3.8,8.6,3.5,8.9,3.5,9.2
		z"/>
</g>
</svg>
