<?xml version="1.0" encoding="utf-8"?>
<!-- Generator: Adobe Illustrator 23.0.3, SVG Export Plug-In . SVG Version: 6.00 Build 0)  -->
<svg version="1.1" id="Layer_1" xmlns="http://www.w3.org/2000/svg" xmlns:xlink="http://www.w3.org/1999/xlink" x="0px" y="0px"
	 viewBox="0 0 17 21" style="enable-background:new 0 0 17 21;" xml:space="preserve"> 
<g>
	<path fill="#080C5C" d="M16.1,3.2l-3.2-2.8l-11.3,0c-0.4,0-0.7,0.3-0.7,0.7v18.8c0,0.4,0.3,0.7,0.7,0.7h13.8c0.4,0,0.7-0.3,0.7-0.7
		V3.2z M13.5,2.9V2.8l0.2,0.2H13.5z M12.8,4.4h1.9v14.8H2.3V1.8h9.8v1.8C12.1,4.1,12.4,4.4,12.8,4.4z"/>
	<path fill="#080C5C" d="M6.2,9.5l-1.4,1.1l-0.3-0.3c-0.2-0.2-0.6-0.2-0.8,0c-0.1,0.1-0.2,0.3-0.2,0.4s0.1,0.3,0.2,0.4l0.7,0.7
		c0.1,0.1,0.3,0.2,0.4,0.2c0.1,0,0.3,0,0.4-0.1l1.7-1.3C7,10.4,7,10.2,7.1,10.1c0-0.2,0-0.3-0.1-0.4C6.8,9.4,6.4,9.4,6.2,9.5z"/>
	<path fill="#080C5C" d="M6.1,13.2l-1.3,1l-0.3-0.3c-0.2-0.2-0.6-0.2-0.8,0c-0.1,0.1-0.2,0.3-0.2,0.4c0,0.2,0.1,0.3,0.2,0.4l0.7,0.7
		c0.1,0.1,0.3,0.2,0.4,0.2c0.1,0,0.3,0,0.4-0.1l1.7-1.3C7,14,7,13.9,7.1,13.7c0-0.2,0-0.3-0.1-0.4C6.7,13.1,6.4,13,6.1,13.2z"/>
	<path fill="#080C5C" d="M7.9,7.3c0,0.3,0.2,0.6,0.5,0.6H13c0.3,0,0.5-0.3,0.5-0.6c0-0.3-0.2-0.6-0.5-0.6H8.5C8.2,6.8,7.9,7,7.9,7.3z"
		/>
	<path fill="#080C5C" d="M6.2,5.8L4.8,6.9L4.5,6.6c-0.2-0.2-0.6-0.2-0.8,0C3.5,6.7,3.5,6.8,3.5,7c0,0.2,0.1,0.3,0.2,0.4l0.7,0.7
		c0.1,0.1,0.3,0.2,0.4,0.2c0.1,0,0.3,0,0.4-0.1l1.7-1.3C7,6.7,7,6.6,7.1,6.4c0-0.2,0-0.3-0.1-0.4C6.8,5.7,6.4,5.7,6.2,5.8z"/>
	<path fill="#080C5C" d="M13,14.1H8.5c-0.3,0-0.5,0.3-0.5,0.6c0,0.3,0.2,0.6,0.5,0.6H13c0.3,0,0.5-0.3,0.5-0.6
		C13.6,14.3,13.3,14.1,13,14.1z"/>
	<path fill="#080C5C" d="M13,10.4H8.5c-0.3,0-0.5,0.3-0.5,0.6s0.2,0.6,0.5,0.6H13c0.3,0,0.5-0.3,0.5-0.6S13.3,10.4,13,10.4z"/>
</g>
</svg>
