<svg version="1.1" id="Layer_1" xmlns="http://www.w3.org/2000/svg" xmlns:xlink="http://www.w3.org/1999/xlink" x="0px" y="0px"
	 viewBox="0 0 19 19" style="enable-background:new 0 0 19 19;" xml:space="preserve"> 
	<g>
		<g>
			<g>
				<g>
					<path fill="#080C5C" d="M17.3,18.5h-6.7c-0.8,0-1.4-0.7-1.4-1.5v-4.5c0-0.8,0.6-1.5,1.4-1.5h6.7c0.8,0,1.4,0.7,1.4,1.5V17
						C18.8,17.9,18.1,18.5,17.3,18.5z M10.7,12.5l0.1,4.5h6.6l-0.1-4.5h0.1H10.7z M5.4,7H1.6C0.9,7,0.3,6.4,0.3,5.7V1.9
						c0-0.8,0.6-1.4,1.4-1.4h3.7c0,0,0,0,0,0c0.4,0,0.7,0.1,1,0.4c0.3,0.3,0.4,0.6,0.4,1v3.8C6.8,6.4,6.1,7,5.4,7z M1.8,5.5h3.5V2
						H1.8V5.5z"/>
				</g>
				<g>
					<path fill="#080C5C" d="M14.5,3.3l-2.8-2.8L8.1,4l3.5,3.5l2.8-2.8h2.1v3.5H1v7.1h4.7l-1.1,1.1l1,1l2.3-2.3c0.3-0.3,0.3-0.7,0-1
						l-2.3-2.3l-1,1l1.1,1.1H2.4V9.7H18V3.3H14.5z M11.5,5.5L10,4l1.5-1.5L13,4L11.5,5.5z"/>
				</g>
			</g>
		</g>
	</g>
</svg>
