<svg xmlns="http://www.w3.org/2000/svg" width="9" height="9" viewBox="0 0 9 9">
    <g fill="none" fill-rule="evenodd">
        <g fill="#7B7B7B">
            <g>
                <path d="M.158.921c-.21-.21-.21-.553 0-.763.21-.21.553-.21.763 0l7.921 7.92c.21.211.21.554 0 .764-.21.21-.553.21-.763 0L.158.922z" transform="translate(-1276 -331) translate(1276 331)"/>
                <path d="M8.079.158c.21-.21.553-.21.763 0 .21.21.21.553 0 .763L.922 8.842c-.211.21-.554.21-.764 0-.21-.21-.21-.553 0-.763L8.078.158z" transform="translate(-1276 -331) translate(1276 331)"/>
            </g>
        </g>
    </g>
</svg>
