<svg xmlns="http://www.w3.org/2000/svg" width="600" height="164" viewBox="0 0 600 164">
  <g id="Group_3" data-name="Group 3" transform="translate(-322.044 -444.615)">
    <g id="Group_1" data-name="Group 1" transform="translate(322.044 513.497)">
      <path id="Path_1" data-name="Path 1" d="M379.088,578.311v13.215q0,1.833-1.963,1.831H337.352v3.664q0,5.888,3.729,8.962t10.14,3.076a32.491,32.491,0,0,0,18.448-6.02,1.7,1.7,0,0,1,2.616.393l5.364,7.2q1.307,1.44-.392,2.747A41.5,41.5,0,0,1,350.7,622.4q-12.039,0-20.344-6.608t-8.309-18.905V578.311q0-13.474,8.373-20.148t20.41-6.673q11.9,0,20.083,6.673T379.088,578.311Zm-14.785-.13q0-6.8-3.794-10.076a14.309,14.309,0,0,0-9.682-3.27q-13.476,0-13.476,13.346v3.4H364.3Z" transform="translate(-322.044 -527.285)" fill="#fff"/>
      <path id="Path_2" data-name="Path 2" d="M469.858,592.165H437.15q-1.963,0-1.963-1.831V580.129a1.735,1.735,0,0,1,1.963-1.963h32.708a1.734,1.734,0,0,1,1.963,1.963v10.206Q471.821,592.168,469.858,592.165Z" transform="translate(-336.41 -530.673)" fill="#fff"/>
      <path id="Path_3" data-name="Path 3" d="M565.376,617.312H532.929q-1.833,0-1.831-1.963V525.728q0-1.962,1.831-1.963h32.448q16.614,0,25.971,8.831t9.354,25.709v24.859q0,16.617-9.354,25.382T565.376,617.312Zm-18.448-79.024v64.24h18.448q18.969,0,18.971-19.233v-25.12q0-19.887-18.971-19.887Z" transform="translate(-348.588 -523.765)" fill="#fff"/>
      <path id="Path_4" data-name="Path 4" d="M672.056,553.288h11.383q1.963,0,1.963,1.832v59.922a2.368,2.368,0,0,1-1.439,2.355,63.006,63.006,0,0,1-25.644,5.234q-14,0-21.979-7.2t-7.982-22.242V555.12q0-1.832,1.963-1.832H641.7a1.62,1.62,0,0,1,1.832,1.832v37.811q0,8.767,3.729,12.43t11.055,3.663a36.732,36.732,0,0,0,11.906-1.571V555.12A1.619,1.619,0,0,1,672.056,553.288Z" transform="translate(-360.938 -527.514)" fill="#fff"/>
      <path id="Path_5" data-name="Path 5" d="M769.233,617.312H755.364a2.584,2.584,0,0,1-2.485-1.178l-20.541-26.952-4.579,4.711V615.35a1.734,1.734,0,0,1-1.963,1.963H714.544a1.735,1.735,0,0,1-1.963-1.963V525.728a1.735,1.735,0,0,1,1.963-1.963H725.8a1.735,1.735,0,0,1,1.963,1.963v49.718l23.027-24.989a2.937,2.937,0,0,1,2.355-.917h13.476q1.306,0,1.57.655t-.523,1.57l-25.251,26.822,28,36.372a1.951,1.951,0,0,1,.393,1.7C770.627,617.1,770.1,617.312,769.233,617.312Z" transform="translate(-371.632 -523.765)" fill="#fff"/>
      <path id="Path_6" data-name="Path 6" d="M786.174,558.424q10.073-6.933,25.643-6.934,12.689,0,19.953,6.608t7.261,19.951v38.2a2.271,2.271,0,0,1-1.439,2.224,88.51,88.51,0,0,1-26.3,3.925q-12.692,0-20.933-5.234t-8.243-16.616q0-10.334,7.785-15.635t20.868-5.3a102.308,102.308,0,0,1,13.084,1.047v-2.486q0-7.066-2.944-10.14t-10.14-3.075a32.249,32.249,0,0,0-16.746,4.187,1.583,1.583,0,0,1-2.617-.524l-5.233-7.981Q785.256,559.21,786.174,558.424Zm11.251,42a7.1,7.1,0,0,0,3.794,6.607q3.794,2.159,10.075,2.159a53.821,53.821,0,0,0,12.56-1.571V592.834a87.643,87.643,0,0,0-12.691-1.047Q797.425,591.787,797.425,600.422Z" transform="translate(-380.461 -527.285)" fill="#fff"/>
      <path id="Path_7" data-name="Path 7" d="M864.1,558.424q10.074-6.933,25.644-6.934,12.688,0,19.952,6.608t7.262,19.951v38.2a2.27,2.27,0,0,1-1.44,2.224,88.506,88.506,0,0,1-26.3,3.925q-12.692,0-20.933-5.234t-8.242-16.616q0-10.334,7.785-15.635t20.868-5.3a102.306,102.306,0,0,1,13.084,1.047v-2.486q0-7.066-2.945-10.14T888.7,564.966a32.249,32.249,0,0,0-16.746,4.187,1.583,1.583,0,0,1-2.617-.524l-5.234-7.981Q863.185,559.21,864.1,558.424Zm11.253,42a7.1,7.1,0,0,0,3.794,6.607q3.794,2.159,10.074,2.159a53.826,53.826,0,0,0,12.561-1.571V592.834a87.653,87.653,0,0,0-12.692-1.047Q875.353,591.787,875.354,600.422Z" transform="translate(-390.356 -527.285)" fill="#fff"/>
      <path id="Path_8" data-name="Path 8" d="M956.283,620.833H945.031a1.734,1.734,0,0,1-1.963-1.963V558.947a2.368,2.368,0,0,1,1.439-2.354,64.791,64.791,0,0,1,26.036-5.1q14.26,0,22.308,7.13T1000.9,580.8V618.87q0,1.963-1.832,1.963H987.684a1.735,1.735,0,0,1-1.963-1.963V581.058q0-8.763-3.795-12.364t-11.383-3.6a48.567,48.567,0,0,0-12.3,1.44V618.87A1.734,1.734,0,0,1,956.283,620.833Z" transform="translate(-400.898 -527.285)" fill="#fff"/>
    </g>
    <g id="Group_2" data-name="Group 2" transform="translate(592.644 444.615)">
      <path id="Path_9" data-name="Path 9" d="M861.17,444.685a15.035,15.035,0,0,1,11.242,3.337c3.792,3.311,5.518,8.518,5.384,13.455a18.963,18.963,0,0,1-3.492,11.952,14.11,14.11,0,0,1-9.8,5.415,14.817,14.817,0,0,1-12.036-3.377c-3.724-3.311-5.353-8.452-5.288-13.33-.1-4.85,1.461-9.918,4.981-13.371a14.524,14.524,0,0,1,9.009-4.081m-.209,6.045a6.982,6.982,0,0,0-4.268,3.2,15.354,15.354,0,0,0-2.013,7.883,14.952,14.952,0,0,0,2.138,8.1,6.584,6.584,0,0,0,5.551,3.124,6.467,6.467,0,0,0,5.7-3.036c2.007-3.046,2.3-6.86,2.007-10.406a11.693,11.693,0,0,0-3.339-7.455A6.558,6.558,0,0,0,860.96,450.73Z" transform="translate(-659.322 -444.616)" fill="#fff"/>
      <path id="Path_10" data-name="Path 10" d="M926.7,444.685A15.061,15.061,0,0,1,937.935,448c3.813,3.311,5.545,8.533,5.407,13.487a18.96,18.96,0,0,1-3.5,11.945,14.129,14.129,0,0,1-9.784,5.409,14.837,14.837,0,0,1-12.049-3.377c-3.724-3.309-5.35-8.449-5.288-13.324a18.253,18.253,0,0,1,4.969-13.368,14.541,14.541,0,0,1,9.009-4.09m-.213,6.047a6.983,6.983,0,0,0-4.262,3.212,15.369,15.369,0,0,0-2,7.867,14.955,14.955,0,0,0,2.133,8.087,6.591,6.591,0,0,0,5.541,3.133,6.51,6.51,0,0,0,5.835-3.224c1.951-3.118,2.2-6.961,1.851-10.531a11.375,11.375,0,0,0-3.477-7.286A6.584,6.584,0,0,0,926.49,450.733Z" transform="translate(-667.644 -444.616)" fill="#fff"/>
      <path id="Path_11" data-name="Path 11" d="M992.937,444.954a19.885,19.885,0,0,1,11.6,1.3c-.534,2-1.125,4-1.594,6.017a14.307,14.307,0,0,0-8.13-1.429c-1.441.228-3.055,1.2-3.151,2.805a2.93,2.93,0,0,0,1.313,2.8c2.53,1.733,5.638,2.33,8.2,4.012a9.673,9.673,0,0,1,3.965,4.512A10.018,10.018,0,0,1,1003,475.62c-2.317,2.289-5.648,3.171-8.818,3.352a21.327,21.327,0,0,1-10.278-2c.472-2.067.967-4.134,1.463-6.2a18.07,18.07,0,0,0,8.19,2.11c1.481-.093,3.161-.366,4.177-1.57a3.314,3.314,0,0,0-.216-4.393c-1.9-1.839-4.628-2.238-6.889-3.452-2.592-1.289-5.072-3.318-5.951-6.176a9.533,9.533,0,0,1,1.4-8.311A11.137,11.137,0,0,1,992.937,444.954Z" transform="translate(-676.682 -444.615)" fill="#fff"/>
      <path id="Path_12" data-name="Path 12" d="M632.01,444.914q16.355.024,32.711,0c.016,3.3-.022,6.595.019,9.894-3.13,0-6.26.01-9.39-.006q-.018,11.942,0,23.887-6.806,0-13.609,0c.063-6.136-.031-12.276.041-18.412-.175-1.835.2-3.683-.085-5.5-3.23.084-6.463.009-9.7.038C632.022,451.515,632.006,448.213,632.01,444.914Z" transform="translate(-632 -444.653)" fill="#fff"/>
      <path id="Path_13" data-name="Path 13" d="M678.385,445.009c4.547-.21,9.109-.035,13.665-.1a.653.653,0,0,1,.779.488c4.343,11.1,8.618,22.232,13.006,33.317-4.41-.047-8.821-.034-13.233-.006-2.389-6.666-4.612-13.39-7-20.056-2.4,6.631-4.6,13.336-6.889,20.009-4.371.063-8.743.006-13.117.028C669.886,467.479,674.186,456.26,678.385,445.009Z" transform="translate(-636.265 -444.652)" fill="#fff"/>
      <path id="Path_14" data-name="Path 14" d="M708.1,444.913q13.889,0,27.774.012c1.626,0,3.259-.072,4.881.057-.031,3.28-.024,6.56-.006,9.84-3.13-.028-6.263,0-9.4-.016.016,7.965-.012,15.929.016,23.89-4.531,0-9.062-.019-13.589.01.037-7.965-.006-15.929.022-23.9-3.236.006-6.47-.012-9.706.012C708.106,451.52,708.094,448.215,708.1,444.913Z" transform="translate(-641.662 -444.652)" fill="#fff"/>
      <path id="Path_15" data-name="Path 15" d="M754.447,445.027c2.2-.275,4.431-.009,6.648-.113,2.558.063,5.128-.137,7.68.11q6.477,16.862,13.108,33.665-6.641,0-13.277,0c-2.129-6.279-4.343-12.532-6.492-18.8-.141-.36-.222-.816-.659-.917-2.152,6.595-4.513,13.121-6.679,19.709-4.377.05-8.752-.012-13.127.031C745.938,467.488,750.232,456.272,754.447,445.027Z" transform="translate(-645.922 -444.651)" fill="#fff"/>
      <path id="Path_16" data-name="Path 16" d="M953.447,445.665a62.672,62.672,0,0,1,10.6-.682c3.143.1,6.526.457,9.084,2.465,3.915,2.946,4.309,9.377.929,12.876a8.941,8.941,0,0,1-3.415,2.342,7.512,7.512,0,0,1,3.653,4.212c1.357,3.768,1.817,7.8,3.236,11.554-2.5-.081-4.99.038-7.483-.065a71.408,71.408,0,0,1-2.189-8.121c-.375-1.5-.82-3.18-2.127-4.152-1.5-1.057-3.434-.757-5.16-.822,0,4.381-.009,8.762.01,13.143q-3.583-.018-7.167,0c.031-10.916-.022-21.833.028-32.749m7.12,5.122c.046,3.036-.044,6.073.046,9.106,2.164-.081,4.515.285,6.458-.916,2.673-1.495,2.839-5.929.216-7.552C965.267,450.222,962.79,450.606,960.567,450.787Z" transform="translate(-672.812 -444.661)" fill="#fff"/>
      <path id="Path_17" data-name="Path 17" d="M804.144,445.333c3.227.034,6.454,0,9.677.018,2.077,7.6,4.459,15.131,5.829,22.906a2.781,2.781,0,0,0,.472-1.292c1.592-7.329,3.908-14.462,6.109-21.622,3.168.012,6.336,0,9.5.006.47,11.038,1.17,22.064,1.645,33.1q-3.508.005-7.014,0c-.181-6.879-.635-13.746-.716-20.629.041-1.9-.072-3.8-.087-5.7-2.277,8.678-5.009,17.227-7.567,25.826h-5.647c-1.889-7.42-4.1-14.765-5.608-22.28a32.027,32.027,0,0,0-.8-3.606c-.19,8.8-.722,17.592-1.1,26.385-2.236,0-4.468,0-6.7.006C802.806,467.413,803.55,456.378,804.144,445.333Z" transform="translate(-653.603 -444.706)" fill="#fff"/>
      <path id="Path_18" data-name="Path 18" d="M883.353,445.351q12.218-.005,24.437,0c-.006,2.082-.028,4.165.012,6.251-2.886.068-5.769.009-8.655.031.006,8.943-.01,17.887.01,26.83-2.411-.019-4.822,0-7.23-.01q0-13.41,0-26.82c-2.852,0-5.707-.006-8.559,0C883.353,449.54,883.375,447.446,883.353,445.351Z" transform="translate(-663.915 -444.708)" fill="#fff"/>
    </g>
  </g>
</svg>
