<svg xmlns="http://www.w3.org/2000/svg" width="50" height="50" viewBox="0 0 50 50">
    <g fill="none" fill-rule="evenodd">
        <g>
            <g>
                <g>
                    <g fill="#E8E9F7" transform="translate(-576 -260) translate(556 242) translate(20 18)">
                        <circle cx="25" cy="25" r="25"/>
                    </g>
                    <g fill="#A8A8D7" fill-rule="nonzero" stroke="#A8A8D7" stroke-width=".5">
                        <path d="M1.3 29.341v-2.856-6.86-8.297-7.142V1.82c0-.37.03-.753 0-1.123v-.05C.94.796.583.94.225 1.091c.653.678 1.305 1.362 1.958 2.04.251.257.634.213.885 0 .803-.678 1.607-1.356 2.41-2.04h-.885c.734.716 1.469 1.431 2.203 2.14.251.245.634.232.885 0 .766-.715 1.538-1.43 2.303-2.14H9.1c.697.678 1.4 1.356 2.097 2.04.244.238.64.238.885 0 .69-.678 1.38-1.356 2.07-2.04h-.884c.74.678 1.481 1.356 2.222 2.04.263.245.62.226.884 0 .804-.678 1.607-1.356 2.41-2.04H17.9c.728.678 1.456 1.356 2.184 2.04.263.245.621.226.885 0 .797-.678 1.594-1.356 2.39-2.04-.357-.15-.715-.295-1.072-.446v27.521c0 .37-.032.754 0 1.124v.05c.357-.15.715-.295 1.073-.446-.791-.677-1.588-1.349-2.379-2.027-.263-.22-.627-.25-.885 0-.696.678-1.4 1.35-2.096 2.027h.885c-.766-.677-1.538-1.349-2.303-2.027-.251-.22-.64-.257-.885 0-.666.678-1.33 1.35-1.99 2.027h.885c-.784-.64-1.575-1.28-2.36-1.92-.282-.226-.609-.239-.885 0-.74.64-1.493 1.28-2.247 1.92h.885l-2.203-2.127c-.25-.245-.633-.232-.885 0-.765.709-1.537 1.418-2.303 2.127h.885c-.766-.709-1.538-1.418-2.303-2.127-.245-.226-.647-.251-.885 0-.69.709-1.375 1.418-2.065 2.127-.565.578.326 1.469.885.885.69-.709 1.374-1.418 2.065-2.127H2.29c.765.709 1.537 1.418 2.303 2.127.257.239.628.239.885 0 .766-.709 1.538-1.418 2.303-2.127h-.885L9.1 29.78c.258.251.628.226.885 0 .753-.64 1.5-1.28 2.253-1.92h-.884c.784.64 1.575 1.28 2.36 1.92.263.214.627.264.884 0 .666-.677 1.33-1.349 1.99-2.027h-.885c.766.678 1.538 1.35 2.303 2.027.258.226.628.251.885 0 .697-.677 1.4-1.349 2.096-2.027h-.884c.79.678 1.587 1.35 2.378 2.027.402.34 1.073.132 1.073-.445v-2.856-6.86-8.297V4.18c0-1.161.05-2.329 0-3.49V.64c0-.577-.671-.784-1.073-.445-.797.677-1.594 1.355-2.391 2.04h.885c-.728-.679-1.456-1.356-2.184-2.04-.264-.245-.622-.226-.885 0-.803.677-1.607 1.355-2.41 2.04h.885C15.64 1.555 14.9.878 14.159.194c-.251-.233-.634-.245-.885 0-.69.677-1.38 1.355-2.071 2.04h.885c-.697-.679-1.4-1.356-2.096-2.04-.251-.245-.634-.233-.885 0-.766.715-1.538 1.43-2.304 2.14h.885C6.954 1.619 6.22.904 5.485.195c-.257-.251-.627-.22-.885 0-.803.677-1.606 1.355-2.41 2.04h.885C2.423 1.555 1.77.878 1.117.194.734-.201.044.1.044.64v25.155c0 1.161-.044 2.328 0 3.49v.05c0 .816 1.255.816 1.255.006z" transform="translate(-576 -260) translate(556 242) translate(20 18) translate(13 10)"/>
                        <path d="M17.88 9.463H5.719c-.666 0-1.205-.368-1.205-.821h0c0-.453.54-.821 1.205-.821h12.156c.666 0 1.206.368 1.206.82h0c.006.454-.534.822-1.2.822z" transform="translate(-576 -260) translate(556 242) translate(20 18) translate(13 10)"/>
                        <path d="M17.88 9.249H6.246c-.17 0-.345.004-.515 0-.784-.021-1.224-.676-.609-1.056.415-.257 1.268-.158 1.776-.158h10.915c.533.004 1.01.273.954.667-.044.316-.433.538-.885.547-.402.009-.402.436 0 .428.96-.022 1.694-.612 1.48-1.266-.156-.488-.809-.795-1.518-.804-.703-.009-1.412 0-2.115 0H7.801c-.684 0-1.368-.013-2.046 0-.747.013-1.4.346-1.525.864-.157.637.571 1.189 1.494 1.21 1.858.038 3.722 0 5.58 0 2.152 0 4.305.026 6.458 0h.119c.401-.004.401-.432 0-.432zM17.88 15.514H5.719c-.666 0-1.205-.368-1.205-.821h0c0-.454.54-.821 1.205-.821h12.156c.666 0 1.206.367 1.206.82h0c.006.454-.534.822-1.2.822z" transform="translate(-576 -260) translate(556 242) translate(20 18) translate(13 10)"/>
                        <path d="M17.88 15.3H6.246c-.17 0-.345.004-.515 0-.784-.022-1.224-.676-.609-1.056.415-.257 1.268-.159 1.776-.159h10.915c.533.005 1.01.274.954.667-.044.317-.433.535-.885.548-.402.008-.402.436 0 .427.96-.021 1.694-.611 1.48-1.265-.156-.488-.809-.796-1.518-.804-.703-.009-1.412 0-2.115 0H7.801c-.684 0-1.368-.013-2.046 0-.747.013-1.4.346-1.525.864-.157.637.571 1.188 1.494 1.21 1.858.038 3.722 0 5.58 0 2.152 0 4.305.025 6.458 0h.119c.401-.005.401-.432 0-.432zM17.88 21.208H5.719c-.666 0-1.205-.368-1.205-.821h0c0-.454.54-.821 1.205-.821h12.156c.666 0 1.206.367 1.206.82h0c.006.454-.534.822-1.2.822z" transform="translate(-576 -260) translate(556 242) translate(20 18) translate(13 10)"/>
                        <path d="M17.88 20.994H6.246c-.17 0-.345.004-.515 0-.784-.021-1.224-.676-.609-1.056.415-.257 1.268-.158 1.776-.158h10.915c.533.004 1.01.273.954.667-.044.316-.433.538-.885.547-.402.009-.402.436 0 .428.96-.022 1.694-.612 1.48-1.266-.156-.488-.809-.796-1.518-.804-.703-.009-1.412 0-2.115 0H7.801c-.684 0-1.368-.013-2.046 0-.747.013-1.4.346-1.525.864-.157.637.571 1.188 1.494 1.21 1.858.038 3.722 0 5.58 0 2.152 0 4.305.026 6.458 0h.119c.401-.004.401-.432 0-.432z" transform="translate(-576 -260) translate(556 242) translate(20 18) translate(13 10)"/>
                    </g>
                </g>
            </g>
        </g>
    </g>
</svg>
